<svg width="256" height="256" viewBox="0 0 256 256" fill="none" xmlns="http://www.w3.org/2000/svg">
  <defs>
    <linearGradient id="bg" x1="24" y1="18" x2="212" y2="238" gradientUnits="userSpaceOnUse">
      <stop offset="0" stop-color="#111733"/>
      <stop offset="0.55" stop-color="#121B3F"/>
      <stop offset="1" stop-color="#0A1026"/>
    </linearGradient>
    <radialGradient id="glow" cx="0" cy="0" r="1" gradientUnits="userSpaceOnUse" gradientTransform="translate(132 102) rotate(90) scale(136 118)">
      <stop offset="0" stop-color="#3B5BA8" stop-opacity="0.25"/>
      <stop offset="1" stop-color="#3B5BA8" stop-opacity="0"/>
    </radialGradient>
    <linearGradient id="chain" x1="62" y1="58" x2="196" y2="198" gradientUnits="userSpaceOnUse">
      <stop offset="0" stop-color="#FFFFFF"/>
      <stop offset="0.62" stop-color="#F7F8FC"/>
      <stop offset="1" stop-color="#EEF1FA"/>
    </linearGradient>
    <filter id="softShadow" x="24" y="24" width="208" height="208" filterUnits="userSpaceOnUse" color-interpolation-filters="sRGB">
      <feDropShadow dx="0" dy="8" stdDeviation="8" flood-color="#020615" flood-opacity="0.42"/>
    </filter>
  </defs>

  <rect width="256" height="256" rx="48" fill="#0B1024"/>
  <rect width="256" height="256" rx="48" fill="url(#bg)"/>
  <rect width="256" height="256" rx="48" fill="url(#glow)"/>

  <path d="M30 25L80 12H220L242 32L240 52H206" stroke="#1D254C" stroke-width="9" stroke-linecap="round" opacity="0.42"/>
  <path d="M48 56V146" stroke="#1A2248" stroke-width="12" stroke-linecap="round" opacity="0.35"/>
  <path d="M214 92L236 116V204" stroke="#151C3E" stroke-width="13" stroke-linecap="round" opacity="0.34"/>
  <path d="M186 126L208 156" stroke="#171F43" stroke-width="11" stroke-linecap="round" opacity="0.28"/>

  <g filter="url(#softShadow)">
    <rect x="62" y="56" width="66" height="66" rx="18" stroke="url(#chain)" stroke-width="20"/>
    <path d="M95 122V154C95 163.941 103.059 172 113 172H142" stroke="url(#chain)" stroke-width="20" stroke-linecap="round" stroke-linejoin="round"/>
    <rect x="142" y="172" width="62" height="62" rx="18" stroke="url(#chain)" stroke-width="20"/>
  </g>
</svg>
